<mxfile host="app.diagrams.net" modified="2022-07-15T02:29:59.919Z" agent="5.0 (Windows NT 10.0; Win64; x64) AppleWebKit/537.36 (KHTML, like Gecko) Chrome/103.0.5060.114 Safari/537.36 Edg/103.0.1264.49" etag="he1PuYzTQu-6OnmZBZNF" version="20.1.1" type="github">
  <diagram id="C5RBs43oDa-KdzZeNtuy" name="Page-1">
    <mxGraphModel dx="1831" dy="757" grid="1" gridSize="10" guides="1" tooltips="1" connect="1" arrows="1" fold="1" page="1" pageScale="1" pageWidth="827" pageHeight="1169" math="0" shadow="0">
      <root>
        <mxCell id="WIyWlLk6GJQsqaUBKTNV-0" />
        <mxCell id="WIyWlLk6GJQsqaUBKTNV-1" parent="WIyWlLk6GJQsqaUBKTNV-0" />
        <mxCell id="WIyWlLk6GJQsqaUBKTNV-2" value="" style="rounded=0;html=1;jettySize=auto;orthogonalLoop=1;fontSize=11;endArrow=block;endFill=0;endSize=8;strokeWidth=1;shadow=0;labelBackgroundColor=none;edgeStyle=orthogonalEdgeStyle;entryX=1;entryY=0.5;entryDx=0;entryDy=0;exitX=0.017;exitY=0.445;exitDx=0;exitDy=0;exitPerimeter=0;" parent="WIyWlLk6GJQsqaUBKTNV-1" source="MomlRcWtu3agXeXAJ8-M-17" target="MomlRcWtu3agXeXAJ8-M-0" edge="1">
          <mxGeometry relative="1" as="geometry">
            <mxPoint x="325" y="120" as="sourcePoint" />
          </mxGeometry>
        </mxCell>
        <mxCell id="WIyWlLk6GJQsqaUBKTNV-4" value="合格" style="rounded=0;html=1;jettySize=auto;orthogonalLoop=1;fontSize=11;endArrow=block;endFill=0;endSize=8;strokeWidth=1;shadow=0;labelBackgroundColor=none;edgeStyle=orthogonalEdgeStyle;entryX=0.5;entryY=0;entryDx=0;entryDy=0;" parent="WIyWlLk6GJQsqaUBKTNV-1" source="WIyWlLk6GJQsqaUBKTNV-6" target="WIyWlLk6GJQsqaUBKTNV-12" edge="1">
          <mxGeometry x="-0.322" y="21" relative="1" as="geometry">
            <mxPoint as="offset" />
          </mxGeometry>
        </mxCell>
        <mxCell id="WIyWlLk6GJQsqaUBKTNV-5" value="不合格" style="edgeStyle=orthogonalEdgeStyle;rounded=0;html=1;jettySize=auto;orthogonalLoop=1;fontSize=11;endArrow=block;endFill=0;endSize=8;strokeWidth=1;shadow=0;labelBackgroundColor=none;" parent="WIyWlLk6GJQsqaUBKTNV-1" source="WIyWlLk6GJQsqaUBKTNV-6" target="WIyWlLk6GJQsqaUBKTNV-7" edge="1">
          <mxGeometry y="10" relative="1" as="geometry">
            <mxPoint as="offset" />
          </mxGeometry>
        </mxCell>
        <mxCell id="WIyWlLk6GJQsqaUBKTNV-6" value="由放行人员&lt;br&gt;&lt;div style=&quot;text-align: justify;&quot;&gt;&lt;span style=&quot;background-color: initial;&quot;&gt;&amp;nbsp; &amp;nbsp;将上述文件检查核验&lt;/span&gt;&lt;/div&gt;" style="rhombus;whiteSpace=wrap;html=1;shadow=0;fontFamily=Helvetica;fontSize=12;align=center;strokeWidth=1;spacing=6;spacingTop=-4;" parent="WIyWlLk6GJQsqaUBKTNV-1" vertex="1">
          <mxGeometry x="257" y="240" width="165" height="90" as="geometry" />
        </mxCell>
        <mxCell id="WIyWlLk6GJQsqaUBKTNV-7" value="由相关设计人修改完善，并由各级确认" style="rounded=1;whiteSpace=wrap;html=1;fontSize=12;glass=0;strokeWidth=1;shadow=0;" parent="WIyWlLk6GJQsqaUBKTNV-1" vertex="1">
          <mxGeometry x="509" y="257" width="141" height="55" as="geometry" />
        </mxCell>
        <mxCell id="WIyWlLk6GJQsqaUBKTNV-11" value="由放行人员填写&lt;br&gt;《设计文件报出审查记录单及归档移交清单》" style="rounded=1;whiteSpace=wrap;html=1;fontSize=12;glass=0;strokeWidth=1;shadow=0;" parent="WIyWlLk6GJQsqaUBKTNV-1" vertex="1">
          <mxGeometry x="210" y="450" width="260" height="60" as="geometry" />
        </mxCell>
        <mxCell id="WIyWlLk6GJQsqaUBKTNV-12" value="由放行人员在成果上加盖放行章" style="rounded=1;whiteSpace=wrap;html=1;fontSize=12;glass=0;strokeWidth=1;shadow=0;" parent="WIyWlLk6GJQsqaUBKTNV-1" vertex="1">
          <mxGeometry x="210" y="370" width="260" height="48" as="geometry" />
        </mxCell>
        <mxCell id="MomlRcWtu3agXeXAJ8-M-0" value="在专业院技术质量办公室报出审查" style="rounded=1;whiteSpace=wrap;html=1;" parent="WIyWlLk6GJQsqaUBKTNV-1" vertex="1">
          <mxGeometry x="210" y="149" width="260" height="45" as="geometry" />
        </mxCell>
        <mxCell id="MomlRcWtu3agXeXAJ8-M-2" value="" style="rounded=0;html=1;jettySize=auto;orthogonalLoop=1;fontSize=11;endArrow=block;endFill=0;endSize=8;strokeWidth=1;shadow=0;labelBackgroundColor=none;edgeStyle=orthogonalEdgeStyle;exitX=0.5;exitY=1;exitDx=0;exitDy=0;entryX=0.5;entryY=0;entryDx=0;entryDy=0;" parent="WIyWlLk6GJQsqaUBKTNV-1" source="MomlRcWtu3agXeXAJ8-M-0" target="WIyWlLk6GJQsqaUBKTNV-6" edge="1">
          <mxGeometry relative="1" as="geometry">
            <mxPoint x="170" y="305" as="sourcePoint" />
            <mxPoint x="100" y="280" as="targetPoint" />
          </mxGeometry>
        </mxCell>
        <mxCell id="MomlRcWtu3agXeXAJ8-M-37" style="edgeStyle=orthogonalEdgeStyle;rounded=0;orthogonalLoop=1;jettySize=auto;html=1;" parent="WIyWlLk6GJQsqaUBKTNV-1" source="MomlRcWtu3agXeXAJ8-M-4" target="MomlRcWtu3agXeXAJ8-M-16" edge="1">
          <mxGeometry relative="1" as="geometry" />
        </mxCell>
        <mxCell id="MomlRcWtu3agXeXAJ8-M-4" value="由放行人员填写《设计图纸晒图单》&lt;span style=&quot;color: rgba(0, 0, 0, 0); font-family: monospace; font-size: 0px; text-align: start;&quot;&gt;%3CmxGraphModel%3E%3Croot%3E%3CmxCell%20id%3D%220%22%2F%3E%3CmxCell%20id%3D%221%22%20parent%3D%220%22%2F%3E%3CmxCell%20id%3D%222%22%20value%3D%22%22%20style%3D%22rounded%3D0%3Bhtml%3D1%3BjettySize%3Dauto%3BorthogonalLoop%3D1%3BfontSize%3D11%3BendArrow%3Dblock%3BendFill%3D0%3BendSize%3D8%3BstrokeWidth%3D1%3Bshadow%3D0%3BlabelBackgroundColor%3Dnone%3BedgeStyle%3DorthogonalEdgeStyle%3BentryX%3D0.5%3BentryY%3D0%3BentryDx%3D0%3BentryDy%3D0%3BexitX%3D0.5%3BexitY%3D1%3BexitDx%3D0%3BexitDy%3D0%3B%22%20edge%3D%221%22%20parent%3D%221%22%3E%3CmxGeometry%20relative%3D%221%22%20as%3D%22geometry%22%3E%3CmxPoint%20x%3D%22380%22%20y%3D%22458%22%20as%3D%22sourcePoint%22%2F%3E%3CmxPoint%20x%3D%22300%22%20y%3D%22610%22%20as%3D%22targetPoint%22%2F%3E%3C%2FmxGeometry%3E%3C%2FmxCell%3E%3C%2Froot%3E%3C%2FmxGraphModel%3E&lt;/span&gt;" style="rounded=1;whiteSpace=wrap;html=1;fontSize=12;glass=0;strokeWidth=1;shadow=0;" parent="WIyWlLk6GJQsqaUBKTNV-1" vertex="1">
          <mxGeometry x="210" y="545" width="260" height="40" as="geometry" />
        </mxCell>
        <mxCell id="MomlRcWtu3agXeXAJ8-M-5" value="" style="rounded=0;html=1;jettySize=auto;orthogonalLoop=1;fontSize=11;endArrow=block;endFill=0;endSize=8;strokeWidth=1;shadow=0;labelBackgroundColor=none;edgeStyle=orthogonalEdgeStyle;entryX=0.5;entryY=0;entryDx=0;entryDy=0;exitX=0.5;exitY=1;exitDx=0;exitDy=0;" parent="WIyWlLk6GJQsqaUBKTNV-1" source="WIyWlLk6GJQsqaUBKTNV-12" target="WIyWlLk6GJQsqaUBKTNV-11" edge="1">
          <mxGeometry relative="1" as="geometry">
            <mxPoint x="414" y="560" as="sourcePoint" />
            <mxPoint x="309" y="610" as="targetPoint" />
          </mxGeometry>
        </mxCell>
        <mxCell id="MomlRcWtu3agXeXAJ8-M-6" value="" style="rounded=0;html=1;jettySize=auto;orthogonalLoop=1;fontSize=11;endArrow=block;endFill=0;endSize=8;strokeWidth=1;shadow=0;labelBackgroundColor=none;edgeStyle=orthogonalEdgeStyle;exitX=0.5;exitY=1;exitDx=0;exitDy=0;" parent="WIyWlLk6GJQsqaUBKTNV-1" source="WIyWlLk6GJQsqaUBKTNV-11" target="MomlRcWtu3agXeXAJ8-M-4" edge="1">
          <mxGeometry relative="1" as="geometry">
            <mxPoint x="550" y="578" as="sourcePoint" />
            <mxPoint x="470" y="730" as="targetPoint" />
          </mxGeometry>
        </mxCell>
        <mxCell id="MomlRcWtu3agXeXAJ8-M-7" value="" style="rounded=0;html=1;jettySize=auto;orthogonalLoop=1;fontSize=11;endArrow=block;endFill=0;endSize=8;strokeWidth=1;shadow=0;labelBackgroundColor=none;edgeStyle=orthogonalEdgeStyle;entryX=0;entryY=0.5;entryDx=0;entryDy=0;exitX=1;exitY=0.5;exitDx=0;exitDy=0;" parent="WIyWlLk6GJQsqaUBKTNV-1" source="MomlRcWtu3agXeXAJ8-M-4" target="MomlRcWtu3agXeXAJ8-M-8" edge="1">
          <mxGeometry relative="1" as="geometry">
            <mxPoint x="420" y="710" as="sourcePoint" />
            <mxPoint x="450" y="852" as="targetPoint" />
          </mxGeometry>
        </mxCell>
        <mxCell id="MomlRcWtu3agXeXAJ8-M-8" value="交图文晒印" style="rounded=1;whiteSpace=wrap;html=1;fontSize=12;glass=0;strokeWidth=1;shadow=0;" parent="WIyWlLk6GJQsqaUBKTNV-1" vertex="1">
          <mxGeometry x="526" y="545" width="120" height="40" as="geometry" />
        </mxCell>
        <mxCell id="MomlRcWtu3agXeXAJ8-M-9" value="放行员整理文件完成向公司档案移交归档" style="rounded=1;whiteSpace=wrap;html=1;fontSize=12;glass=0;strokeWidth=1;shadow=0;" parent="WIyWlLk6GJQsqaUBKTNV-1" vertex="1">
          <mxGeometry x="41" y="640" width="260" height="50" as="geometry" />
        </mxCell>
        <mxCell id="MomlRcWtu3agXeXAJ8-M-10" value="" style="rounded=0;html=1;jettySize=auto;orthogonalLoop=1;fontSize=11;endArrow=block;endFill=0;endSize=8;strokeWidth=1;shadow=0;labelBackgroundColor=none;edgeStyle=orthogonalEdgeStyle;entryX=0.5;entryY=0;entryDx=0;entryDy=0;exitX=0.5;exitY=1;exitDx=0;exitDy=0;" parent="WIyWlLk6GJQsqaUBKTNV-1" source="MomlRcWtu3agXeXAJ8-M-4" target="MomlRcWtu3agXeXAJ8-M-9" edge="1">
          <mxGeometry relative="1" as="geometry">
            <mxPoint x="430" y="720" as="sourcePoint" />
            <mxPoint x="520" y="720" as="targetPoint" />
          </mxGeometry>
        </mxCell>
        <mxCell id="MomlRcWtu3agXeXAJ8-M-11" value="项目人员提交项目结束归档确认" style="rounded=1;whiteSpace=wrap;html=1;fontSize=12;glass=0;strokeWidth=1;shadow=0;" parent="WIyWlLk6GJQsqaUBKTNV-1" vertex="1">
          <mxGeometry x="209.5" y="780" width="260" height="50" as="geometry" />
        </mxCell>
        <mxCell id="MomlRcWtu3agXeXAJ8-M-12" value="项目人员将交底记录、往来文件、竣工验收等重要文件" style="shape=document;whiteSpace=wrap;html=1;boundedLbl=1;" parent="WIyWlLk6GJQsqaUBKTNV-1" vertex="1">
          <mxGeometry x="730" y="618" width="120" height="110" as="geometry" />
        </mxCell>
        <mxCell id="MomlRcWtu3agXeXAJ8-M-15" value="" style="rounded=0;html=1;jettySize=auto;orthogonalLoop=1;fontSize=11;endArrow=block;endFill=0;endSize=8;strokeWidth=1;shadow=0;labelBackgroundColor=none;edgeStyle=orthogonalEdgeStyle;exitX=0.003;exitY=0.424;exitDx=0;exitDy=0;entryX=1;entryY=0.5;entryDx=0;entryDy=0;exitPerimeter=0;" parent="WIyWlLk6GJQsqaUBKTNV-1" source="MomlRcWtu3agXeXAJ8-M-12" target="MomlRcWtu3agXeXAJ8-M-16" edge="1">
          <mxGeometry relative="1" as="geometry">
            <mxPoint x="-176" y="690.5" as="sourcePoint" />
            <mxPoint x="-136" y="690" as="targetPoint" />
          </mxGeometry>
        </mxCell>
        <mxCell id="MomlRcWtu3agXeXAJ8-M-16" value="项目人员整理文件完成向公司档案移交归档" style="rounded=1;whiteSpace=wrap;html=1;" parent="WIyWlLk6GJQsqaUBKTNV-1" vertex="1">
          <mxGeometry x="380" y="640" width="260" height="50" as="geometry" />
        </mxCell>
        <mxCell id="MomlRcWtu3agXeXAJ8-M-17" value="可研、初步设计、实功设计、各阶段设计成果原件&lt;br&gt;质量记录文件、输入文件" style="shape=document;whiteSpace=wrap;html=1;boundedLbl=1;" parent="WIyWlLk6GJQsqaUBKTNV-1" vertex="1">
          <mxGeometry x="523" y="122" width="120" height="110" as="geometry" />
        </mxCell>
        <mxCell id="MomlRcWtu3agXeXAJ8-M-20" value="设计成果原件质量记录文件、输入文件、强审蓝图（如有）" style="shape=document;whiteSpace=wrap;html=1;boundedLbl=1;" parent="WIyWlLk6GJQsqaUBKTNV-1" vertex="1">
          <mxGeometry x="-160" y="621" width="120" height="110" as="geometry" />
        </mxCell>
        <mxCell id="MomlRcWtu3agXeXAJ8-M-24" value="" style="rounded=0;html=1;jettySize=auto;orthogonalLoop=1;fontSize=11;endArrow=block;endFill=0;endSize=8;strokeWidth=1;shadow=0;labelBackgroundColor=none;edgeStyle=orthogonalEdgeStyle;exitX=1.008;exitY=0.4;exitDx=0;exitDy=0;exitPerimeter=0;" parent="WIyWlLk6GJQsqaUBKTNV-1" source="MomlRcWtu3agXeXAJ8-M-20" target="MomlRcWtu3agXeXAJ8-M-9" edge="1">
          <mxGeometry relative="1" as="geometry">
            <mxPoint x="-110.96000000000004" y="229.95000000000005" as="sourcePoint" />
            <mxPoint x="-176" y="664.97" as="targetPoint" />
          </mxGeometry>
        </mxCell>
        <mxCell id="MomlRcWtu3agXeXAJ8-M-29" value="" style="rounded=0;html=1;jettySize=auto;orthogonalLoop=1;fontSize=11;endArrow=block;endFill=0;endSize=8;strokeWidth=1;shadow=0;labelBackgroundColor=none;edgeStyle=orthogonalEdgeStyle;entryX=0.5;entryY=0;entryDx=0;entryDy=0;exitX=0.5;exitY=1;exitDx=0;exitDy=0;" parent="WIyWlLk6GJQsqaUBKTNV-1" source="MomlRcWtu3agXeXAJ8-M-16" target="MomlRcWtu3agXeXAJ8-M-11" edge="1">
          <mxGeometry relative="1" as="geometry">
            <mxPoint x="660" y="610" as="sourcePoint" />
            <mxPoint x="660" y="670" as="targetPoint" />
          </mxGeometry>
        </mxCell>
        <mxCell id="MomlRcWtu3agXeXAJ8-M-65" style="edgeStyle=orthogonalEdgeStyle;rounded=0;orthogonalLoop=1;jettySize=auto;html=1;entryX=0.5;entryY=0;entryDx=0;entryDy=0;" parent="WIyWlLk6GJQsqaUBKTNV-1" source="MomlRcWtu3agXeXAJ8-M-38" target="MomlRcWtu3agXeXAJ8-M-47" edge="1">
          <mxGeometry relative="1" as="geometry" />
        </mxCell>
        <mxCell id="MomlRcWtu3agXeXAJ8-M-38" value="经营管理部审核通过向公司档案部门发起&lt;br&gt;项目结束确认归档验证流程" style="rounded=1;whiteSpace=wrap;html=1;fontSize=12;glass=0;strokeWidth=1;shadow=0;" parent="WIyWlLk6GJQsqaUBKTNV-1" vertex="1">
          <mxGeometry x="209.5" y="880" width="260" height="60" as="geometry" />
        </mxCell>
        <mxCell id="Yo7wedeZXsJSIZelugxn-1" style="edgeStyle=orthogonalEdgeStyle;rounded=0;orthogonalLoop=1;jettySize=auto;html=1;entryX=0;entryY=0.5;entryDx=0;entryDy=0;" edge="1" parent="WIyWlLk6GJQsqaUBKTNV-1" source="MomlRcWtu3agXeXAJ8-M-47" target="MomlRcWtu3agXeXAJ8-M-60">
          <mxGeometry relative="1" as="geometry" />
        </mxCell>
        <mxCell id="MomlRcWtu3agXeXAJ8-M-47" value="档案员审核并回复意见" style="rhombus;whiteSpace=wrap;html=1;shadow=0;fontFamily=Helvetica;fontSize=12;align=center;strokeWidth=1;spacing=6;spacingTop=-4;" parent="WIyWlLk6GJQsqaUBKTNV-1" vertex="1">
          <mxGeometry x="257" y="972" width="165" height="90" as="geometry" />
        </mxCell>
        <mxCell id="MomlRcWtu3agXeXAJ8-M-48" value="项目人员补充归档并回复流程" style="rounded=1;whiteSpace=wrap;html=1;fontSize=12;glass=0;strokeWidth=1;shadow=0;" parent="WIyWlLk6GJQsqaUBKTNV-1" vertex="1">
          <mxGeometry x="509" y="989" width="171" height="55" as="geometry" />
        </mxCell>
        <mxCell id="MomlRcWtu3agXeXAJ8-M-49" value="项目归档通过" style="rounded=1;whiteSpace=wrap;html=1;fontSize=12;glass=0;strokeWidth=1;shadow=0;" parent="WIyWlLk6GJQsqaUBKTNV-1" vertex="1">
          <mxGeometry x="210" y="1214" width="260" height="46" as="geometry" />
        </mxCell>
        <mxCell id="MomlRcWtu3agXeXAJ8-M-51" value="" style="rounded=0;html=1;jettySize=auto;orthogonalLoop=1;fontSize=11;endArrow=block;endFill=0;endSize=8;strokeWidth=1;shadow=0;labelBackgroundColor=none;edgeStyle=orthogonalEdgeStyle;exitX=0.5;exitY=1;exitDx=0;exitDy=0;" parent="WIyWlLk6GJQsqaUBKTNV-1" source="MomlRcWtu3agXeXAJ8-M-11" edge="1">
          <mxGeometry relative="1" as="geometry">
            <mxPoint x="349.5" y="950" as="sourcePoint" />
            <mxPoint x="340" y="880" as="targetPoint" />
          </mxGeometry>
        </mxCell>
        <mxCell id="MomlRcWtu3agXeXAJ8-M-58" value="重新提交" style="text;html=1;strokeColor=none;fillColor=none;align=center;verticalAlign=middle;whiteSpace=wrap;rounded=0;" parent="WIyWlLk6GJQsqaUBKTNV-1" vertex="1">
          <mxGeometry x="556" y="940" width="60" height="30" as="geometry" />
        </mxCell>
        <mxCell id="Yo7wedeZXsJSIZelugxn-3" style="edgeStyle=orthogonalEdgeStyle;rounded=0;orthogonalLoop=1;jettySize=auto;html=1;" edge="1" parent="WIyWlLk6GJQsqaUBKTNV-1" source="MomlRcWtu3agXeXAJ8-M-60" target="Yo7wedeZXsJSIZelugxn-2">
          <mxGeometry relative="1" as="geometry" />
        </mxCell>
        <mxCell id="MomlRcWtu3agXeXAJ8-M-60" value="缺失重要文件无法完成归档执行行政审批" style="rounded=1;whiteSpace=wrap;html=1;fontSize=12;glass=0;strokeWidth=1;shadow=0;" parent="WIyWlLk6GJQsqaUBKTNV-1" vertex="1">
          <mxGeometry x="509" y="1070" width="241" height="50" as="geometry" />
        </mxCell>
        <mxCell id="MomlRcWtu3agXeXAJ8-M-67" value="合格" style="rounded=0;html=1;jettySize=auto;orthogonalLoop=1;fontSize=11;endArrow=block;endFill=0;endSize=8;strokeWidth=1;shadow=0;labelBackgroundColor=none;edgeStyle=orthogonalEdgeStyle;exitX=0.5;exitY=1;exitDx=0;exitDy=0;entryX=0.5;entryY=0;entryDx=0;entryDy=0;" parent="WIyWlLk6GJQsqaUBKTNV-1" source="MomlRcWtu3agXeXAJ8-M-47" edge="1" target="MomlRcWtu3agXeXAJ8-M-49">
          <mxGeometry x="-0.322" y="21" relative="1" as="geometry">
            <mxPoint as="offset" />
            <mxPoint x="339.9999999999998" y="1069.9999999999998" as="sourcePoint" />
            <mxPoint x="340" y="1100" as="targetPoint" />
          </mxGeometry>
        </mxCell>
        <mxCell id="MomlRcWtu3agXeXAJ8-M-68" value="不合格" style="edgeStyle=orthogonalEdgeStyle;rounded=0;html=1;jettySize=auto;orthogonalLoop=1;fontSize=11;endArrow=block;endFill=0;endSize=8;strokeWidth=1;shadow=0;labelBackgroundColor=none;entryX=-0.019;entryY=0.495;entryDx=0;entryDy=0;entryPerimeter=0;exitX=1;exitY=0.5;exitDx=0;exitDy=0;" parent="WIyWlLk6GJQsqaUBKTNV-1" source="MomlRcWtu3agXeXAJ8-M-47" target="MomlRcWtu3agXeXAJ8-M-48" edge="1">
          <mxGeometry y="10" relative="1" as="geometry">
            <mxPoint as="offset" />
            <mxPoint x="450" y="1016" as="sourcePoint" />
            <mxPoint x="501" y="1042" as="targetPoint" />
          </mxGeometry>
        </mxCell>
        <mxCell id="Yo7wedeZXsJSIZelugxn-4" style="edgeStyle=orthogonalEdgeStyle;rounded=0;orthogonalLoop=1;jettySize=auto;html=1;entryX=1;entryY=0.5;entryDx=0;entryDy=0;" edge="1" parent="WIyWlLk6GJQsqaUBKTNV-1" source="Yo7wedeZXsJSIZelugxn-2" target="MomlRcWtu3agXeXAJ8-M-49">
          <mxGeometry relative="1" as="geometry" />
        </mxCell>
        <mxCell id="Yo7wedeZXsJSIZelugxn-7" style="edgeStyle=orthogonalEdgeStyle;rounded=0;orthogonalLoop=1;jettySize=auto;html=1;entryX=0;entryY=0.5;entryDx=0;entryDy=0;" edge="1" parent="WIyWlLk6GJQsqaUBKTNV-1" source="Yo7wedeZXsJSIZelugxn-2" target="Yo7wedeZXsJSIZelugxn-6">
          <mxGeometry relative="1" as="geometry" />
        </mxCell>
        <mxCell id="Yo7wedeZXsJSIZelugxn-2" value="行政审批流程" style="rounded=1;whiteSpace=wrap;html=1;fontSize=12;glass=0;strokeWidth=1;shadow=0;" vertex="1" parent="WIyWlLk6GJQsqaUBKTNV-1">
          <mxGeometry x="544" y="1214" width="171" height="46" as="geometry" />
        </mxCell>
        <mxCell id="Yo7wedeZXsJSIZelugxn-5" value="通过" style="text;html=1;strokeColor=none;fillColor=none;align=center;verticalAlign=middle;whiteSpace=wrap;rounded=0;" vertex="1" parent="WIyWlLk6GJQsqaUBKTNV-1">
          <mxGeometry x="480" y="1211" width="60" height="30" as="geometry" />
        </mxCell>
        <mxCell id="Yo7wedeZXsJSIZelugxn-6" value="整改或处罚" style="rounded=1;whiteSpace=wrap;html=1;fontSize=12;glass=0;strokeWidth=1;shadow=0;" vertex="1" parent="WIyWlLk6GJQsqaUBKTNV-1">
          <mxGeometry x="800" y="1214" width="171" height="46" as="geometry" />
        </mxCell>
        <mxCell id="Yo7wedeZXsJSIZelugxn-8" value="不通过" style="text;html=1;strokeColor=none;fillColor=none;align=center;verticalAlign=middle;whiteSpace=wrap;rounded=0;" vertex="1" parent="WIyWlLk6GJQsqaUBKTNV-1">
          <mxGeometry x="730" y="1210" width="60" height="30" as="geometry" />
        </mxCell>
        <mxCell id="Yo7wedeZXsJSIZelugxn-11" value="" style="rounded=0;html=1;jettySize=auto;orthogonalLoop=1;fontSize=11;endArrow=block;endFill=0;endSize=8;strokeWidth=1;shadow=0;labelBackgroundColor=none;edgeStyle=orthogonalEdgeStyle;exitX=1;exitY=0.5;exitDx=0;exitDy=0;" edge="1" parent="WIyWlLk6GJQsqaUBKTNV-1" source="MomlRcWtu3agXeXAJ8-M-48">
          <mxGeometry x="-0.322" y="21" relative="1" as="geometry">
            <mxPoint as="offset" />
            <mxPoint x="695" y="1017" as="sourcePoint" />
            <mxPoint x="430" y="1000" as="targetPoint" />
            <Array as="points">
              <mxPoint x="700" y="1017" />
              <mxPoint x="700" y="970" />
              <mxPoint x="430" y="970" />
            </Array>
          </mxGeometry>
        </mxCell>
      </root>
    </mxGraphModel>
  </diagram>
</mxfile>
